<svg xmlns="http://www.w3.org/2000/svg" version="1.1" xmlns:xlink="http://www.w3.org/1999/xlink" xmlns:svgjs="http://svgjs.dev/svgjs" width="1000" height="625" viewBox="0 0 1000 625"><g transform="matrix(1,0,0,1,0,0)"><svg viewBox="0 0 576 360" data-background-color="#ffffff" preserveAspectRatio="xMidYMid meet" height="625" width="1000" xmlns="http://www.w3.org/2000/svg" xmlns:xlink="http://www.w3.org/1999/xlink"><g id="tight-bounds" transform="matrix(1,0,0,1,0,0)"><svg viewBox="0 0 576 360" height="360" width="576"><g><svg></svg></g><g><svg viewBox="0 0 576 360" height="360" width="576"><g><path d="M132.115 90l155.885-90 155.885 90v180l-155.885 90-155.885-90zM133.469 269.219l154.531 89.218 154.531-89.218v-178.438l-154.531-89.218-154.531 89.218z" fill="#269bb9" fill-rule="nonzero" stroke="none" stroke-width="1" stroke-linecap="butt" stroke-linejoin="miter" stroke-miterlimit="10" stroke-dasharray="" stroke-dashoffset="0" font-family="none" font-weight="none" font-size="none" text-anchor="none" style="mix-blend-mode: normal" data-fill-palette-color="tertiary"></path></g><g transform="matrix(1,0,0,1,172.8,157.90360924890595)"><svg viewBox="0 0 230.39999999999998 44.192781502188076" height="44.192781502188076" width="230.39999999999998"><g><svg viewBox="0 0 231.552 44.41374540969902" height="44.192781502188076" width="230.39999999999998"><g><rect width="231.552" height="1.3603343618066368" x="0" y="24.407842026188344" fill="#2289a4" opacity="1" stroke-width="0" stroke="transparent" fill-opacity="1" class="rect-in-0" data-fill-palette-color="secondary" rx="1%" id="in-0" data-palette-color="#2289a4"></rect></g><g transform="matrix(1,0,0,1,0.5759999999999934,29.32926110476628)"><svg viewBox="0 0 230.4 15.084484304932737" height="15.084484304932737" width="230.4"><g><svg viewBox="0 0 230.4 15.084484304932737" height="15.084484304932737" width="230.4"><g><svg viewBox="0 0 230.4 15.084484304932737" height="15.084484304932737" width="230.4"><g transform="matrix(1,0,0,1,0,0)"><svg width="230.4" viewBox="2.5 -35.75 557.45 36.5" height="15.084484304932737" data-palette-color="#1e778f"><path d="M2.5 0L2.5-0.75 5.5-1.5 5.5-33.5 2.5-34.25 2.5-35 15.25-35Q24.2-35 28.98-30.4 33.75-25.8 33.75-17.5L33.75-17.5Q33.75-9.2 28.98-4.6 24.2 0 15.25 0L15.25 0 2.5 0ZM13.75-1.25L15.25-1.25Q19.9-1.25 22.45-5.03 25-8.8 25-17.5L25-17.5Q25-26.2 22.45-29.98 19.9-33.75 15.25-33.75L15.25-33.75 13.75-33.75 13.75-1.25ZM47.5 0.75Q43.05 0.75 40.65-1.15 38.25-3.05 38.25-6L38.25-6Q38.25-7.95 39.1-9.85L39.1-9.85Q39.45-10.75 40-11.5L40-11.5Q42.05-12 44.45-12.4L44.45-12.4Q49.85-13.3 54-13.5L54-13.5 54-15Q54-20.55 52.65-22.65 51.3-24.75 48.5-24.75L48.5-24.75Q47.45-24.75 46.7-24.5L46.7-24.5 46-24.25 46-16.75 45.35-16.6Q44.55-16.5 44-16.5L44-16.5Q42.3-16.5 41.27-17.53 40.25-18.55 40.25-20.25L40.25-20.25Q40.25-22.55 42.57-24.15 44.9-25.75 49.5-25.75L49.5-25.75Q53.4-25.75 56.22-24.38 59.05-23 60.52-20.58 62-18.15 62-15L62-15 62-1.5 65-0.75 65 0 60.5 0Q57.5 0 55.85-1.85L55.85-1.85Q55.15-2.6 54.75-3.75L54.75-3.75Q54.05-2.5 53.1-1.5L53.1-1.5Q50.85 0.75 47.5 0.75L47.5 0.75ZM49.5-1Q51.35-1 52.85-3L52.85-3Q53.4-3.75 54-5L54-5 54-12.25Q51.7-12.25 49.6-12L49.6-12Q48.05-11.8 47.5-11.75L47.5-11.75Q47.25-11.2 47-10.25L47-10.25Q46.5-8.35 46.5-6.5L46.5-6.5Q46.5-3.7 47.35-2.35 48.2-1 49.5-1L49.5-1ZM81 0.75Q77.7 0.75 75.27-0.45 72.84-1.65 71.55-3.75 70.25-5.85 70.25-8.5L70.25-8.5 70.25-23.75 66.75-23.75 66.75-25 70.25-25 70.25-27.5Q70.25-32 74.75-32L74.75-32 78.25-32 78.25-25 85.25-25 85.25-23.75 78.25-23.75 78.25-8.5Q78.25-3.9 79.2-2.2 80.15-0.5 82-0.5L82-0.5Q83.8-0.5 85.15-2.25 86.5-4 86.5-7L86.5-7 87.75-7Q87.75-3.3 85.9-1.28 84.05 0.75 81 0.75L81 0.75ZM99.74 0.75Q95.29 0.75 92.89-1.15 90.49-3.05 90.49-6L90.49-6Q90.49-7.95 91.34-9.85L91.34-9.85Q91.69-10.75 92.24-11.5L92.24-11.5Q94.29-12 96.69-12.4L96.69-12.4Q102.09-13.3 106.24-13.5L106.24-13.5 106.24-15Q106.24-20.55 104.89-22.65 103.54-24.75 100.74-24.75L100.74-24.75Q99.69-24.75 98.94-24.5L98.94-24.5 98.24-24.25 98.24-16.75 97.59-16.6Q96.79-16.5 96.24-16.5L96.24-16.5Q94.54-16.5 93.52-17.53 92.49-18.55 92.49-20.25L92.49-20.25Q92.49-22.55 94.82-24.15 97.14-25.75 101.74-25.75L101.74-25.75Q105.64-25.75 108.47-24.38 111.29-23 112.77-20.58 114.24-18.15 114.24-15L114.24-15 114.24-1.5 117.24-0.75 117.24 0 112.74 0Q109.74 0 108.09-1.85L108.09-1.85Q107.39-2.6 106.99-3.75L106.99-3.75Q106.29-2.5 105.34-1.5L105.34-1.5Q103.09 0.75 99.74 0.75L99.74 0.75ZM101.74-1Q103.59-1 105.09-3L105.09-3Q105.64-3.75 106.24-5L106.24-5 106.24-12.25Q103.94-12.25 101.84-12L101.84-12Q100.29-11.8 99.74-11.75L99.74-11.75Q99.49-11.2 99.24-10.25L99.24-10.25Q98.74-8.35 98.74-6.5L98.74-6.5Q98.74-3.7 99.59-2.35 100.44-1 101.74-1L101.74-1ZM146.99 0.75Q143.44 0.75 140.34-0.85L140.34-0.85Q138.94-1.55 137.99-2.5L137.99-2.5Q137.29-1.35 136.24-0.45L136.24-0.45Q135.34 0.2 135.24 0.25L135.24 0.25 133.99 0.25 133.99-9.25 135.99-9.25Q136.74-6.8 138.09-4.85L138.09-4.85Q141.14-0.5 145.99-0.5L145.99-0.5Q148.84-0.5 150.54-2.2 152.24-3.9 152.24-6.75L152.24-6.75Q152.24-8.4 151.26-9.7 150.29-11 148.84-12 147.39-13 144.79-14.5L144.79-14.5Q141.49-16.35 139.44-17.85 137.39-19.35 135.94-21.63 134.49-23.9 134.49-27L134.49-27Q134.49-29.45 135.86-31.43 137.24-33.4 139.99-34.58 142.74-35.75 146.74-35.75L146.74-35.75Q149.64-35.75 152.54-34.1L152.54-34.1Q153.64-33.5 154.74-32.5L154.74-32.5Q155.59-33.8 156.49-34.55L156.49-34.55Q157.39-35.2 157.49-35.25L157.49-35.25 158.74-35.25 158.74-25.75 156.74-25.75Q156.09-28.15 154.79-30.1L154.79-30.1Q153.59-32 151.81-33.25 150.04-34.5 147.74-34.5L147.74-34.5Q145.79-34.5 144.39-32.95 142.99-31.4 142.99-29L142.99-29Q142.99-27.15 144.06-25.68 145.14-24.2 146.71-23.1 148.29-22 150.99-20.45L150.99-20.45Q154.14-18.65 156.09-17.25 158.04-15.85 159.39-13.78 160.74-11.7 160.74-9L160.74-9Q160.74-6.3 159.19-4.08 157.64-1.85 154.54-0.55 151.44 0.75 146.99 0.75L146.99 0.75ZM177.49 0.75Q171.09 0.75 167.54-2.78 163.99-6.3 163.99-12.5L163.99-12.5Q163.99-18.7 167.54-22.23 171.09-25.75 177.49-25.75L177.49-25.75Q182.09-25.75 184.41-24.15 186.74-22.55 186.74-20.25L186.74-20.25Q186.74-18.55 185.71-17.53 184.69-16.5 182.99-16.5L182.99-16.5Q182.29-16.5 181.59-16.6L181.59-16.6 180.99-16.75 180.99-24.25 180.29-24.5Q179.54-24.75 178.49-24.75L178.49-24.75Q175.64-24.75 174.06-22.05 172.49-19.35 172.49-12.5L172.49-12.5Q172.49-5.85 174.06-3.18 175.64-0.5 178.49-0.5L178.49-0.5Q180.44-0.5 182.11-1.43 183.79-2.35 184.76-3.88 185.74-5.4 185.74-7L185.74-7 186.99-7Q186.99-5 185.79-3.2 184.59-1.4 182.44-0.33 180.29 0.75 177.49 0.75L177.49 0.75ZM190.48 0L190.48-0.75 193.48-1.5 193.48-23.5 190.48-24.25 190.48-25 196.98-25Q201.48-25 201.48-20.5L201.48-20.5 201.48-1.5 204.48-0.75 204.48 0 190.48 0ZM196.98-28Q195.48-28 194.48-29 193.48-30 193.48-31.5L193.48-31.5Q193.48-33 194.48-34 195.48-35 196.98-35L196.98-35Q198.48-35 199.48-34 200.48-33 200.48-31.5L200.48-31.5Q200.48-30 199.48-29 198.48-28 196.98-28L196.98-28ZM220.98 0.75Q214.58 0.75 211.03-2.78 207.48-6.3 207.48-12.5L207.48-12.5Q207.48-16.55 209.03-19.55 210.58-22.55 213.36-24.15 216.13-25.75 219.73-25.75L219.73-25.75Q223.33-25.75 226.06-24.4 228.78-23.05 230.26-20.78 231.73-18.5 231.73-15.75L231.73-15.75Q231.73-14.5 231.48-13.6L231.48-13.6 231.23-12.75Q229.08-12.3 226.58-12L226.58-12Q221.33-11.25 215.98-11.25L215.98-11.25Q215.98-5.45 217.58-2.98 219.18-0.5 221.98-0.5L221.98-0.5Q223.93-0.5 225.61-1.43 227.28-2.35 228.26-3.88 229.23-5.4 229.23-7L229.23-7 230.48-7Q230.48-5 229.28-3.2 228.08-1.4 225.93-0.33 223.78 0.75 220.98 0.75L220.98 0.75ZM215.98-12.5Q219.18-12.5 221.18-12.75L221.18-12.75Q222.03-12.8 222.98-13L222.98-13Q223.03-13.25 223.23-14.1L223.23-14.1Q223.48-15.35 223.48-16.75L223.48-16.75Q223.48-20.9 222.38-22.83 221.28-24.75 219.73-24.75L219.73-24.75Q215.98-24.75 215.98-12.5L215.98-12.5ZM235.48 0L235.48-0.75 238.48-1.5 238.48-23.5 235.48-24.25 235.48-25 239.98-25Q242.93-25 244.63-23.1L244.63-23.1Q245.28-22.35 245.73-21.25L245.73-21.25Q246.43-22.55 247.38-23.5L247.38-23.5Q249.63-25.75 252.98-25.75L252.98-25.75Q255.78-25.75 258-24.58 260.23-23.4 261.48-21.5 262.73-19.6 262.73-17.5L262.73-17.5 262.73-1.5 265.73-0.75 265.73 0 259.23 0Q254.73 0 254.73-4.5L254.73-4.5 254.73-17.5Q254.73-20.65 253.6-22.33 252.48-24 250.98-24L250.98-24Q249.08-24 247.58-22L247.58-22Q246.93-21.15 246.48-20L246.48-20 246.48-1.5 249.48-0.75 249.48 0 235.48 0ZM282.23 0.75Q275.83 0.75 272.28-2.78 268.73-6.3 268.73-12.5L268.73-12.5Q268.73-18.7 272.28-22.23 275.83-25.75 282.23-25.75L282.23-25.75Q286.83-25.75 289.15-24.15 291.48-22.55 291.48-20.25L291.48-20.25Q291.48-18.55 290.45-17.53 289.43-16.5 287.73-16.5L287.73-16.5Q287.03-16.5 286.33-16.6L286.33-16.6 285.73-16.75 285.73-24.25 285.03-24.5Q284.28-24.75 283.23-24.75L283.23-24.75Q280.38-24.75 278.8-22.05 277.23-19.35 277.23-12.5L277.23-12.5Q277.23-5.85 278.8-3.18 280.38-0.5 283.23-0.5L283.23-0.5Q285.18-0.5 286.85-1.43 288.53-2.35 289.5-3.88 290.48-5.4 290.48-7L290.48-7 291.73-7Q291.73-5 290.53-3.2 289.33-1.4 287.18-0.33 285.03 0.75 282.23 0.75L282.23 0.75ZM308.72 0.75Q302.32 0.75 298.77-2.78 295.22-6.3 295.22-12.5L295.22-12.5Q295.22-16.55 296.77-19.55 298.32-22.55 301.1-24.15 303.87-25.75 307.47-25.75L307.47-25.75Q311.07-25.75 313.8-24.4 316.52-23.05 318-20.78 319.47-18.5 319.47-15.75L319.47-15.75Q319.47-14.5 319.22-13.6L319.22-13.6 318.97-12.75Q316.82-12.3 314.32-12L314.32-12Q309.07-11.25 303.72-11.25L303.72-11.25Q303.72-5.45 305.32-2.98 306.92-0.5 309.72-0.5L309.72-0.5Q311.67-0.5 313.35-1.43 315.02-2.35 316-3.88 316.97-5.4 316.97-7L316.97-7 318.22-7Q318.22-5 317.02-3.2 315.82-1.4 313.67-0.33 311.52 0.75 308.72 0.75L308.72 0.75ZM303.72-12.5Q306.92-12.5 308.92-12.75L308.92-12.75Q309.77-12.8 310.72-13L310.72-13Q310.77-13.25 310.97-14.1L310.97-14.1Q311.22-15.35 311.22-16.75L311.22-16.75Q311.22-20.9 310.12-22.83 309.02-24.75 307.47-24.75L307.47-24.75Q303.72-24.75 303.72-12.5L303.72-12.5ZM337.72 0L337.72-0.75 340.72-1.5 340.72-33.5 337.72-34.25 337.72-35 351.72-35Q360.02-35 363.62-32.27 367.22-29.55 367.22-24.25L367.22-24.25Q367.22-18.95 363.62-16.23 360.02-13.5 351.72-13.5L351.72-13.5 348.97-13.5 348.97-1.5 351.97-0.75 351.97 0 337.72 0ZM348.97-14.75L351.72-14.75Q354.87-14.75 356.79-17.15 358.72-19.55 358.72-24.25L358.72-24.25Q358.72-28.9 356.79-31.33 354.87-33.75 351.72-33.75L351.72-33.75 348.97-33.75 348.97-14.75ZM383.22 0.75Q377.02 0.75 373.49-2.78 369.97-6.3 369.97-12.5L369.97-12.5Q369.97-18.7 373.49-22.23 377.02-25.75 383.22-25.75L383.22-25.75Q389.42-25.75 392.94-22.23 396.47-18.7 396.47-12.5L396.47-12.5Q396.47-6.3 392.94-2.78 389.42 0.75 383.22 0.75L383.22 0.75ZM383.22-0.25Q385.22-0.25 386.59-3.05 387.97-5.85 387.97-12.5L387.97-12.5Q387.97-19.15 386.59-21.95 385.22-24.75 383.22-24.75L383.22-24.75Q381.22-24.75 379.84-21.95 378.47-19.15 378.47-12.5L378.47-12.5Q378.47-5.85 379.84-3.05 381.22-0.25 383.22-0.25L383.22-0.25ZM400.46 0L400.46-0.75 403.46-1.5 403.46-23.5 400.46-24.25 400.46-25 404.96-25Q407.91-25 409.61-23.1L409.61-23.1Q410.26-22.35 410.71-21.25L410.71-21.25Q411.46-22.35 412.56-23.25L412.56-23.25Q415.06-25.25 418.16-25.25L418.16-25.25Q420.81-25.25 422.14-24.03 423.46-22.8 423.46-20.5L423.46-20.5Q423.46-18.8 422.44-17.78 421.41-16.75 419.71-16.75L419.71-16.75Q419.01-16.75 418.31-16.85L418.31-16.85 417.71-17 417.71-24Q415.16-24 413.06-22L413.06-22Q412.06-21 411.46-20L411.46-20 411.46-1.5 414.46-0.75 414.46 0 400.46 0ZM439.21 0.75Q435.91 0.75 433.49-0.45 431.06-1.65 429.76-3.75 428.46-5.85 428.46-8.5L428.46-8.5 428.46-23.75 424.96-23.75 424.96-25 428.46-25 428.46-27.5Q428.46-32 432.96-32L432.96-32 436.46-32 436.46-25 443.46-25 443.46-23.75 436.46-23.75 436.46-8.5Q436.46-3.9 437.41-2.2 438.36-0.5 440.21-0.5L440.21-0.5Q442.01-0.5 443.36-2.25 444.71-4 444.71-7L444.71-7 445.96-7Q445.96-3.3 444.11-1.28 442.26 0.75 439.21 0.75L439.21 0.75ZM448.46 0L448.46-0.75 451.46-1.5 451.46-22.75 447.96-22.75 447.96-24 451.46-24 451.46-26.5Q451.46-29.15 452.73-31.25 454.01-33.35 456.38-34.55 458.76-35.75 461.96-35.75L461.96-35.75Q464.56-35.75 466.43-34.98 468.31-34.2 469.26-32.93 470.21-31.65 470.21-30.25L470.21-30.25Q470.21-28.55 469.18-27.53 468.16-26.5 466.46-26.5L466.46-26.5Q465.76-26.5 465.06-26.6L465.06-26.6 464.46-26.75 464.46-34.5 464.01-34.6Q463.81-34.65 463.56-34.7 463.31-34.75 462.96-34.75L462.96-34.75Q461.26-34.75 460.36-32.98 459.46-31.2 459.46-26.5L459.46-26.5 459.46-24 467.46-24 467.46-22.75 459.46-22.75 459.46-1.5 462.46-0.75 462.46 0 448.46 0ZM482.21 0.75Q476.01 0.75 472.48-2.78 468.96-6.3 468.96-12.5L468.96-12.5Q468.96-18.7 472.48-22.23 476.01-25.75 482.21-25.75L482.21-25.75Q488.41-25.75 491.93-22.23 495.46-18.7 495.46-12.5L495.46-12.5Q495.46-6.3 491.93-2.78 488.41 0.75 482.21 0.75L482.21 0.75ZM482.21-0.25Q484.21-0.25 485.58-3.05 486.96-5.85 486.96-12.5L486.96-12.5Q486.96-19.15 485.58-21.95 484.21-24.75 482.21-24.75L482.21-24.75Q480.21-24.75 478.83-21.95 477.46-19.15 477.46-12.5L477.46-12.5Q477.46-5.85 478.83-3.05 480.21-0.25 482.21-0.25L482.21-0.25ZM499.45 0L499.45-0.75 502.45-1.5 502.45-33.5 499.45-34.25 499.45-35 505.95-35Q510.45-35 510.45-30.5L510.45-30.5 510.45-1.5 513.45-0.75 513.45 0 499.45 0ZM516.45 0L516.45-0.75 519.45-1.5 519.45-23.5 516.45-24.25 516.45-25 522.95-25Q527.45-25 527.45-20.5L527.45-20.5 527.45-1.5 530.45-0.75 530.45 0 516.45 0ZM522.95-28Q521.45-28 520.45-29 519.45-30 519.45-31.5L519.45-31.5Q519.45-33 520.45-34 521.45-35 522.95-35L522.95-35Q524.45-35 525.45-34 526.45-33 526.45-31.5L526.45-31.5Q526.45-30 525.45-29 524.45-28 522.95-28L522.95-28ZM546.7 0.75Q540.5 0.75 536.97-2.78 533.45-6.3 533.45-12.5L533.45-12.5Q533.45-18.7 536.97-22.23 540.5-25.75 546.7-25.75L546.7-25.75Q552.9-25.75 556.42-22.23 559.95-18.7 559.95-12.5L559.95-12.5Q559.95-6.3 556.42-2.78 552.9 0.75 546.7 0.75L546.7 0.75ZM546.7-0.25Q548.7-0.25 550.07-3.05 551.45-5.85 551.45-12.5L551.45-12.5Q551.45-19.15 550.07-21.95 548.7-24.75 546.7-24.75L546.7-24.75Q544.7-24.75 543.32-21.95 541.95-19.15 541.95-12.5L541.95-12.5Q541.95-5.85 543.32-3.05 544.7-0.25 546.7-0.25L546.7-0.25Z" opacity="1" transform="matrix(1,0,0,1,0,0)" fill="#1e778f" class="undefined-text-0" data-fill-palette-color="primary" id="text-0"></path></svg></g></svg></g></svg></g></svg></g><g transform="matrix(1,0,0,1,90.90658454566909,0)"><svg viewBox="0 0 49.7388309086618 20.846757309417043" height="20.846757309417043" width="49.7388309086618"><g><svg xmlns="http://www.w3.org/2000/svg" xmlns:xlink="http://www.w3.org/1999/xlink" version="1.1" x="8" y="0" viewBox="0.7999999999999993 19.6 98.4 60.800000000000004" enable-background="new 0 0 100 100" xml:space="preserve" height="20.846757309417043" width="33.7388309086618" class="icon-icon-0" data-fill-palette-color="accent" id="icon-0"><path d="M98.8 49.1c-1.1-4.6-3.7-8.8-7.4-11.7-3.8-3-8.5-4.7-13.3-4.7H76v23.8L99.2 51 98.8 49.1zM79.9 51.6V36.7c6.6 0.7 12.2 5.2 14.5 11.4L79.9 51.6zM72.7 60.7c11.3-2.7 16.6-4 19.2-4.6 0.3 1.5 0.5 3 0.5 4.6 0 10.9-8.8 19.7-19.7 19.7C61.9 80.4 53 71.6 53 60.7S61.9 41 72.7 41V60.7zM66.1 19.6H41 12.2c-3.7 0-6.7 3-6.7 6.7v27.5 1.5 4.9c0 0.9-0.3 1.7-0.8 2.4l-3.5 4.2c-0.3 0.3-0.4 0.7-0.4 1.1v1.9c0 2.5 2 4.5 4.5 4.5H54c-2.8-3.9-4.5-8.6-4.5-13.8 0 0 0 0 0 0H12.2v-5.1-1.8V26.3c0 0 0 0 0 0H44h22c0 0 0 0 0 0v12.1c2.1-0.6 4.3-1 6.7-1 0 0 0 0 0 0V26.3C72.8 22.6 69.8 19.6 66.1 19.6zM31.9 67.4h14.5v0.5c0 1.3-1 2.3-2.3 2.3h-9.9c-1.3 0-2.3-1-2.3-2.3V67.4z" fill="#269bb9" data-fill-palette-color="accent"></path></svg></g></svg></g><g><rect width="46.32418454566909" height="1.3603343618066368" y="18.486422947610407" x="140.64541545433087" fill="#2289a4" data-fill-palette-color="secondary"></rect><rect width="46.32418454566909" height="1.3603343618066368" y="18.486422947610407" x="44.58240000000001" fill="#2289a4" data-fill-palette-color="secondary"></rect></g></svg></g></svg></g></svg></g><defs></defs></svg><rect width="576" height="360" fill="none" stroke="none" visibility="hidden"></rect></g></svg></g></svg>